<svg width="18" height="18" viewBox="0 0 18 18" fill="none" xmlns="http://www.w3.org/2000/svg">
<path d="M0.343828 15.9961C-0.114609 16.4545 -0.114609 17.1977 0.343828 17.6562C0.802266 18.1146 1.54556 18.1146 2.004 17.6562L0.343828 15.9961ZM9.83005 9.83005C10.2885 9.3716 10.2885 8.62843 9.83005 8.16998C9.3716 7.71153 8.62843 7.71153 8.16998 8.16998L9.83005 9.83005ZM8.16998 8.16998C7.71153 8.62843 7.71153 9.3716 8.16998 9.83005C8.62843 10.2885 9.3716 10.2885 9.83005 9.83005L8.16998 8.16998ZM17.6562 2.004C18.1146 1.54556 18.1146 0.802266 17.6562 0.343828C17.1977 -0.114609 16.4545 -0.114609 15.9961 0.343828L17.6562 2.004ZM9.83005 8.16998C9.3716 7.71153 8.62843 7.71153 8.16998 8.16998C7.71153 8.62843 7.71153 9.3716 8.16998 9.83005L9.83005 8.16998ZM15.9961 17.6562C16.4545 18.1146 17.1977 18.1146 17.6562 17.6562C18.1146 17.1977 18.1146 16.4545 17.6562 15.9961L15.9961 17.6562ZM8.16998 9.83005C8.62843 10.2885 9.3716 10.2885 9.83005 9.83005C10.2885 9.3716 10.2885 8.62843 9.83005 8.16998L8.16998 9.83005ZM2.004 0.343828C1.54556 -0.114609 0.802266 -0.114609 0.343828 0.343828C-0.114609 0.802266 -0.114609 1.54556 0.343828 2.004L2.004 0.343828ZM2.004 17.6562L9.83005 9.83005L8.16998 8.16998L0.343828 15.9961L2.004 17.6562ZM9.83005 9.83005L17.6562 2.004L15.9961 0.343828L8.16998 8.16998L9.83005 9.83005ZM8.16998 9.83005L15.9961 17.6562L17.6562 15.9961L9.83005 8.16998L8.16998 9.83005ZM9.83005 8.16998L2.004 0.343828L0.343828 2.004L8.16998 9.83005L9.83005 8.16998Z" fill="white"/>
</svg>
