<svg width="20" height="20" viewBox="0 0 20 20" fill="none" xmlns="http://www.w3.org/2000/svg">
<path d="M16.2936 0.000278766L16.3394 0.00112213C17.302 0.0246226 18.2194 0.417406 18.901 1.09913C19.5827 1.78087 19.9753 2.69837 19.9989 3.66092L19.9997 3.70679L20 3.75275C20 4.70037 19.6414 5.613 18.9963 6.30716L18.9649 6.3406L18.9518 6.35403L6.73453 18.5728C6.36096 18.9428 5.85448 19.2233 5.34323 19.4304C4.81365 19.6449 4.22518 19.8022 3.65469 19.8964C3.08675 19.9901 2.50863 20.0258 2.00126 19.9804C1.53802 19.9388 0.9607 19.816 0.574638 19.4353C0.184011 19.05 0.0603079 18.4686 0.0191076 18.0063C-0.0261005 17.499 0.0112671 16.9208 0.106325 16.3531C0.201856 15.7827 0.360447 15.1943 0.574788 14.6646C0.785055 14.1449 1.06924 13.6309 1.44205 13.2545L13.6467 1.04837L13.6602 1.03521L13.6936 1.0038C14.3989 0.348293 15.3297 -0.0114658 16.2936 0.000278766ZM16.2748 1.54232C15.7003 1.53532 15.1458 1.75234 14.7286 2.14722L2.53646 14.3409C2.36472 14.5147 2.17518 14.8203 2.00415 15.243C1.83685 15.6565 1.70632 16.1348 1.62709 16.6079C1.54739 17.0838 1.52436 17.526 1.55496 17.8694C1.58387 18.1937 1.65013 18.3168 1.65926 18.3367C1.68098 18.3472 1.80877 18.4147 2.13892 18.4443C2.48477 18.4753 2.92821 18.4533 3.40367 18.3748C3.87657 18.2968 4.35335 18.1675 4.76436 18.001C5.1856 17.8304 5.48713 17.641 5.65678 17.4698L17.8535 5.27145C18.248 4.85436 18.4648 4.30006 18.4579 3.72574L18.4574 3.69872C18.4437 3.14059 18.2194 2.60829 17.8297 2.20882L17.8107 2.1896C17.4092 1.78803 16.8688 1.55667 16.3018 1.54283L16.2748 1.54232Z" fill="white"/>
</svg>
